# xmcd
#
# Track frame offsets:
#	150
#	20282
#	39844
#	59115
#	78939
#	99928
#	119600
#	138926
#	155706
#	174333
#	190323
#	209080
#	228750
#	248739
#	271073
#	286277
#	306446
#	321418
#	336942
#
# Disc length: 4742 seconds
#
# Revision: 0
# Processed by: cddbd v1.5.2PL0 Copyright (c) Steve Scherf et al.
# Submitted via: dBpowerAMP V4.0
#
DISCID=10128413
DTITLE=my artist - my album
DYEAR=2004
DGENRE=Country
TTITLE0=a
TTITLE1=b
TTITLE2=c
TTITLE3=d
TTITLE4=e
TTITLE5=f
TTITLE6=g
TTITLE7=h
TTITLE8=i
TTITLE9=j
TTITLE10=k
TTITLE11=l
TTITLE12=m
TTITLE13=n
TTITLE14=o
TTITLE15=p
TTITLE16=q
TTITLE17=r
TTITLE18=s
EXTD=
EXTT0=
EXTT1=
EXTT2=
EXTT3=
EXTT4=
EXTT5=
EXTT6=
EXTT7=
EXTT8=
EXTT9=
EXTT10=
EXTT11=
EXTT12=
EXTT13=
EXTT14=
EXTT15=
EXTT16=
EXTT17=
EXTT18=
PLAYORDER=
